{"title":"Pirates.Of.The.Caribbean.The.Curse.Of.The.Black.Pearl.2003.DVDRi","uid":5534662,"size":733119389,"categoryP":"video","categoryS":"movies","magnet":"?xt=urn:btih:59454baed256352e88a8412c2268572bba4040b3&amp;dn=Pirates.Of.The.Caribbean.The.Curse.Of.The.Black.Pearl.2003.DVDRi&amp;tr=udp%3A%2F%2Ftracker.openbittorrent.com%3A80&amp;tr=udp%3A%2F%2Fopen.demonii.com%3A1337&amp;tr=udp%3A%2F%2Ftracker.coppersurfer.tk%3A6969&amp;tr=udp%3A%2F%2Fexodus.desync.com%3A6969","seeders":1,"leechers":0,"uploader":"TerraWatt","files":3,"time":1273029823,"description":"Format : AVI\nFormat/Info : Audio Video Interleave\nFile size : 699 MiB\nDuration : 2h 23mn\nOverall bit rate : 682 Kbps\nWriting application : VirtualDubMod 1.5.10.2 (build 2540/release)\nWriting library : VirtualDubMod build 2540/release\n\nVideo\nID : 0\nFormat : MPEG-4 Visual\nFormat profile : Advanced Simple@L5\nFormat settings, BVOP : Yes\nFormat settings, QPel : No\nFormat settings, GMC : No warppoints\nFormat settings, Matrix : Default (H.263)\nCodec ID : DIVX\nCodec ID/Info : Project Mayo\nCodec ID/Hint : DivX 4\nDuration : 2h 23mn\nBit rate : 565 Kbps\nWidth : 664 pixels\nHeight : 280 pixels\nDisplay aspect ratio : 2.35:1\nFrame rate : 23.976 fps\nResolution : 8 bits\nColorimetry : 4:2:0\nScan type : Progressive\nBits/(Pixel*Frame) : 0.127\nStream size : 579 MiB (83%)\nWriting library : XviD 1.2.1 (UTC 2008-12-04)\n\nAudio\nID : 1\nFormat : MPEG Audio\nFormat version : Version 1\nFormat profile : Layer 3\nFormat_Settings_Mode : Joint stereo\nFormat_Settings_ModeExtension : MS Stereo\nCodec ID : 55\nCodec ID/Hint : MP3\nDuration : 2h 23mn\nBit rate mode : Variable\nBit rate : 105 Kbps\nNominal bit rate : 106 Kbps\nChannel(s) : 2 channels\nSampling rate : 44.1 KHz\nStream size : 107 MiB (15%)\nAlignment : Aligned on interleaves\nInterleave, duration : 26 ms (0.63 video frame)\nInterleave, preload duration : 182 ms\nWriting library : LAME3.90.\nEncoding settings : -m j -V 4 -q 2 -lowpass 16 --abr 106","torrent":{"xt":"urn:btih:59454baed256352e88a8412c2268572bba4040b3","amp;dn":"Pirates.Of.The.Caribbean.The.Curse.Of.The.Black.Pearl.2003.DVDRi","amp;tr":["udp%3A%2F%2Ftracker.openbittorrent.com%3A80","udp%3A%2F%2Fopen.demonii.com%3A1337","udp%3A%2F%2Ftracker.coppersurfer.tk%3A6969","udp%3A%2F%2Fexodus.desync.com%3A6969"],"infoHash":"59454baed256352e88a8412c2268572bba4040b3","infoHashBuffer":{"type":"Buffer","data":[89,69,75,174,210,86,53,46,136,168,65,44,34,104,87,43,186,64,64,179]},"announce":[],"urlList":[]}}